<svg xmlns="http://www.w3.org/2000/svg" xmlns:xlink="http://www.w3.org/1999/xlink" width="100%" height="100%" viewBox="0 0 100 100">
    <defs>
    <linearGradient id="sky" gradientTransform="rotate(90)">
        <stop offset="5%"  stop-color="hsl(210, 37%, 49%)" />
        <stop offset="95%" stop-color="white" />
    </linearGradient>
    </defs>
    <rect width="100" height="100" fill="url('#sky')" />

    <circle cx="3" cy="3" r="10" fill="#fcb045" />

    <circle cx="0" cy="60" r="35" fill="hsl(88, 34%, 32%)" />
    <circle cx="50" cy="50" r="40" fill="hsl(88, 34%, 32%)" />
    <circle cx="90" cy="60" r="40" fill="hsl(88, 34%, 32%)" />

    <rect x="0" y="50"  width="100" height="50" fill="hsl(87, 34%, 40%)" />
    <rect x="21" y="30"  width="58" height="25" fill="white" />

    <rect x="27.5" y="34"  width="17" height="21" fill="black" fill-opacity="0.9" />
    <rect x="28.5" y="35"  width="7" height="20" fill="hsl(197, 71%, 82%)" />
    <rect x="36.5" y="35"  width="7" height="20" fill="hsl(197, 71%, 82%)" />

    <rect x="55" y="34"  width="17" height="7" fill="black" fill-opacity="0.9" />
    <rect x="56" y="35"  width="7" height="5" fill="hsl(197, 71%, 82%)" />
    <rect x="64" y="35"  width="7" height="5" fill="hsl(197, 71%, 82%)" />

    <rect x="20" y="30"  width="60" height="3" fill="white" stroke="black" stroke-opacity="0.2" stroke-width="0.2" />
    <rect x="20" y="55"  width="60" height="3" fill="white" stroke="black" stroke-opacity="0.2" stroke-width="0.2" />

    <polygon points="27.5,58 16.5,100 54.5,100 44.5,58" style="fill:#c1bab0;" />
</svg>