<svg xmlns="http://www.w3.org/2000/svg" xmlns:xlink="http://www.w3.org/1999/xlink" width="100%" height="100%" viewBox="0 0 100 100">
    <g transform="scale(1.18) translate(-10, 0)">
        <path fill="hsl(235, 19%, 37%)" d="M 40.5 9.9 l -2 0.4 l 1 -1.82 l 1.11 0 z" />
        <path fill="hsl(240, 4%, 65%)" d="M 40.5 9.9 L 42.85 9.89 L 40.62 8.5 Z" />
        <path fill="hsl(227, 7%, 50%)" d="M 40.5 9.9 L 38.5 10.3 L 39 15.65 L 41.59 13.26 Z" />
        <path fill="hsl(354, 12%, 84%)" d="M 40.5 9.9 L 42.85 9.89 L 53.89 21 L 53.5 22.91 L 51.65 23.95 L 49.45 25.8 L 47.65 27.46 L 43.28 18.47 Z" />
        <path fill="hsl(4, 19%, 72%)" d="M 39 15.65 L 41.59 13.26 L 43.28 18.47 L 42.15 19.56 Z" />
        <path fill="hsl(29, 25%, 75%)" d="M 53.89 21 L 56.41 25.72 L 53.5 22.91 Z" />
        <path fill="hsl(21, 18%, 85%)" d="M 39.58 22.06 L 41.14 33.65 L 47.65 27.46 L 43.28 18.47 Z" />
        <path fill="hsl(228, 10%, 49%)" d="M 38.5 10.3 L 33.3 25.4 L 38.83 21.5 L 39.29 19.9 L 39 15.65 Z" />
        <path fill="hsl(220, 9%, 26%)" d="M 33.3 25.4 L 36.95 28.1 L 38.83 21.5 Z" />
        <path fill="hsl(252, 2%, 45%)" d="M 39.29 19.9 L 41.32 35 L 36.95 28.1" />
        <path fill="hsl(26, 7%, 62%)" d="M 39 15.65 L 42.15 19.56 L 39.58 22.06 L 39.29 19.9 Z" />
        <path fill="hsl(206, 15%, 21%)" d="M 33.3 25.4 L 31.29 33 L 34.99 30.77 L 34.21 30.34 L 33.66 28.94 L 34.66 27.41 L 36 27.4 Z" />
        <path fill="hsl(30, 55%, 4%)" d="M 36 27.4 L 34.66 27.41 L 33.66 28.94 L 34.21 30.34 L 34.99 30.77 L 36 30.92 L 36.99 30.23 L 37.26 29.15 L 36.95 28.1 Z" />
        <path fill="hsl(189, 9%, 30%)" d="M 31.29 33 L 39.69 53.99 L 41.32 35 L 36.95 28.1 L 37.26 29.15 L 36.99 30.23 L 36 30.92 L 34.99 30.77 Z" />
        <path fill="hsl(240, 3%, 13%)" d="M 31.29 33 L 30.67 39.71 L 29.78 42.97 L 39.69 53.99 Z" />
        <path fill="hsl(201, 15%, 18%)" d="M 29.78 42.97 L 33.28 52.91 L 39.69 53.99 Z" />
        <path fill="hsl(0, 12%, 10%)" d="M 29.78 42.97 L 27.84 51.99 L 33.28 52.91 Z" />
        <path fill="hsl(220, 4%, 15%)" d="M 27.84 51.99 L 19.4 77.36 L 26.27 80.39 L 39.69 53.99 Z" />
        <path fill="hsl(218, 6%, 24%)" d="M 39.69 53.99 L 30.72 86.75 L 26.09 81.36 L 26.27 80.39 Z" />
        <path fill="hsl(312, 3%, 68%)" d="M 19.4 77.36 L 25 87.33 L 26.27 80.39 Z" />
        <path fill="hsl(0, 9%, 13%)" d="M 19.4 77.36 L 20.34 88.39 L 12.8 86.23 L 25.41 59.29 Z" />
        <path fill="hsl(220, 2%, 24%)" d="M 19.4 77.36 L 25 87.33 L 30.72 86.75 L 34.41 91.08 L 20.34 88.39 Z" />
        <path fill="hsl(225, 5%, 49%)" d="M 26.09 81.36 L 30.72 86.75 L 25 87.33 Z" />
        <path fill="hsl(230, 3%, 36%)" d="M 41.32 35 L 46.97 50.23 L 39.69 53.99 Z" />
        <path fill="hsl(6, 9%, 46%)" d="M 39.69 53.99 L 47.6 64.06 L 46.97 50.23 Z" />
        <path fill="hsl(354, 8%, 50%)" d="M 39.69 53.99 L 47.6 64.06 L 46.45 72.9 Z" />
        <path fill="hsl(218, 4%, 39%)" d="M 39.69 53.99 L 46.45 72.9 L 30.72 86.75 Z" />
        <path fill="hsl(6, 28%, 79%)" d="M 41.14 33.65 L 47.65 27.46 L 49.45 25.8 L 48.6 27.15 L 47.75 30.17 L 47.45 35.79 L 48.51 41.2 L 41.32 35 Z" />
        <path fill="hsl(16, 26%, 55%)" d="M 65.4 58 L 71.78 56.33 L 75.74 59.84 Z" />
        <path fill="hsl(48, 7%, 43%)" d="M 75.74 59.84 L 65.28 68.49 L 60.4 65.94 Z" />
        <path fill="hsl(35, 18%, 19%)" d="M 75.74 59.84 L 69.46 70.68 L 65.28 68.49 Z" />
        <path fill="hsl(48, 6%, 17%)" d="M 75.74 59.84 L 74.07 68.1 L 69.46 70.68 Z" />
        <path fill="hsl(72, 6%, 32%)" d="M 75.74 59.84 L 78.52 60.99 L 74.07 68.1 Z" />
        <path fill="hsl(32, 18%, 25%)" d="M 75.74 59.84 L 81.1 55.59 L 78.52 60.99 Z" />
        <path fill="hsl(9, 28%, 41%)" d="M 75.74 59.84 L 71.78 56.33 L 81.1 55.59 Z" />
        <path fill="hsl(72, 2%, 47%)" d="M 60.4 65.94 L 46.45 72.9 L 69.46 70.68 Z" />
        <path fill="hsl(192, 2%, 43%)" d="M 46.45 72.9 L 52.2 77.09 L 69.46 70.68 Z" />
        <path fill="hsl(250, 3%, 58%)" d="M 46.45 72.9 L 41.4 83.5 L 52.2 77.09 Z" />
        <path fill="hsl(195, 5%, 45%)" d="M 46.45 72.9 L 41.4 83.5 L 30.72 86.75 Z" />
        <path fill="hsl(225, 6%, 58%)" d="M 41.4 83.5 L 30.72 86.75 L 34.41 91.08 Z" />
        <path fill="hsl(202, 5%, 44%)" d="M 52.2 77.09 L 46.1 90.94 L 34.41 91.08 L 41.4 83.5 Z" />
        <path fill="hsl(215, 7%, 47%)" d="M 52.2 77.09 L 62.95 86.97 L 69.46 70.68 Z" />
        <path fill="hsl(218, 4%, 35%)" d="M 52.2 77.09 L 46.1 90.94 L 62.95 86.97 Z" />
        <path fill="hsl(168, 6%, 31%)" d="M 69.46 70.68 L 68.3 83.28 L 74.07 68.1 Z" />
        <path fill="hsl(208, 11%, 35%)" d="M 69.46 70.68 L 68.15 84.95 L 62.95 86.97 Z" />
        <path fill="hsl(231, 12%, 23%)" d="M 46.1 90.94 L 63.14 88.67 L 68.15 84.95 L 62.95 86.97 Z" />
        <path fill="hsl(3, 34%, 48%)" d="M 81.1 55.59 L 75.32 54.4 L 71.78 56.33 Z" />
        <path fill="hsl(39, 28%, 80%)" d="M 81.1 55.59 L 81.17 52.74 L 79.58 53.07 L 79.56 55.27" />
        <path fill="hsl(2, 31%, 51%)" d="M 79.58 53.07 L 75.32 54.4 L 79.56 55.27 Z" />
        <path fill="hsl(3, 26%, 60%)" d="M 48.51 41.2 L 48.76 30.77 L 47.75 30.17 L 47.45 35.79 Z" />
        <path fill="hsl(2, 35%, 53%)" d="M 47.75 30.17 L 48.76 30.77 L 49.26 27.66 L 48.51 27.44 Z" />
        <path fill="hsl(358, 43%, 43%)" d="M 48.51 27.44 L 49.26 27.66 L 49.93 26.75 L 49.74 25.54 L 49.45 25.8 L 48.6 27.15 Z" />
        <path fill="hsl(26, 40%, 80%)" d="M 49.8 25.93 L 53.75 27.41 L 51.12 24.39 L 49.74 25.54 Z" />
        <path fill="hsl(26, 40%, 80%)" d="M 49.93 26.75 L 50.83 27.97 L 49.22 27.9 L 49.26 27.66 Z" />
        <path fill="hsl(26, 40%, 80%)" d="M 51.57 24.9 L 55.06 26.3 L 53.41 24.71 L 51.8 23.87 L 51.65 23.95 L 51.12 24.39 Z" />
        <path fill="hsl(26, 40%, 80%)" d="M 56.41 25.72 L 57.91 28 L 53.52 24.8 L 53.73 23.14 Z" />
        <path fill="hsl(6, 27%, 50%)" d="M 53.5 22.91 L 53.73 23.14 L 53.52 24.8 L 53.41 24.71 L 51.8 23.87" />
        <path fill="hsl(26, 39%, 80%)" d="M 49.07 28.87 L 51.4 30.7 L 48.76 30.77 Z" />
        <path fill="hsl(26, 39%, 80%)" d="M 48.73 32.17 L 50.21 33.24 L 50.18 34 L 48.68 34.18 Z" />
        <path fill="hsl(26, 39%, 80%)" d="M 48.64 35.96 L 50.64 37.35 L 48.6 37.9 Z" />
        <path fill="hsl(26, 39%, 80%)" d="M 48.55 39.67 L 50.6 41.35 L 48.64 41.55 L 48.51 41.2 Z" />
        <path fill="hsl(0, 33%, 77%)" d="M 81.17 52.73 L 79.13 50.57 L 77.9 50.64 L 77.88 53.6 L 79.58 53.07 Z" />
        <path fill="hsl(0, 44%, 66%)" d="M 77.9 50.64 L 74.89 51.59 L 77.88 53.6 Z" />
        <path fill="hsl(4, 39%, 52%)" d="M 74.89 51.59 L 73 54.82 L 75.32 54.4 L 77.88 53.6 Z" />
        <path fill="hsl(3, 36%, 53%)" d="M 75.32 54.4 L 71.78 56.33 L 65.84 57.35 L 65.07 56.3 Z" />
        <path fill="hsl(7, 25%, 57%)" d="M 71.78 56.33 L 65.84 57.35 L 59.14 57.16 L 65.4 58.0" />
        <path fill="hsl(26, 39%, 80%)" d="M 65.84 57.35 L 64.95 56.14 L 64.61 57.32 Z" />
        <path fill="hsl(1, 46%, 62%)" d="M 64.81 56.61 L 57.95 57 L 59.14 57.16 L 64.61 57.32 Z" />
        <path fill="hsl(9, 40%, 54%)" d="M 74.89 51.59 L 72 53.63 L 67.61 55.83 L 73 54.82 Z" />
        <path fill="hsl(26, 39%, 80%)" d="M 80.39 51.91 L 80.3 49.51 L 79.62 49.86 L 79.5 50.97 Z" />
        <path fill="hsl(26, 39%, 80%)" d="M 78.23 50.62 L 77.22 49.43 L 76.1 49.55 L 77.49 50.76 L 77.9 50.64 Z" />
        <path fill="hsl(26, 39%, 80%)" d="M 76.43 51.1 L 74.5 49.88 L 74.89 51.59 Z" />
        <path fill="hsl(26, 39%, 80%)" d="M 74.07 52.18 L 71.51 51.65 L 72.81 53.1 Z" />
        <path fill="hsl(26, 39%, 80%)" d="M 71.85 53.73 L 70.09 52.53 L 70.65 54.33 Z" />
        <path fill="hsl(26, 39%, 80%)" d="M 68.75 55.26 L 67.54 54.6 L 67.77 55.75 Z" />
        <path fill="hsl(26, 39%, 80%)" d="M 63.1 56.7 L 62.2 55.2 L 61.86 56.78 Z" />
        <path fill="hsl(26, 39%, 80%)" d="M 60.23 56.9 L 59.63 56 L 59.45 56.91 Z" />
        <path fill="hsl(13, 27%, 57%)" d="M 70.65 54.33 L 69.15 53.76 L 67.54 54.6 L 68.75 55.26 Z" />
        <path fill="hsl(4, 41%, 52%)" d="M 67.55 54.6 L 62.84 56.27 L 63.1 56.7 L 64.81 56.61 L 64.95 56.14 L 65.07 56.3 L 67.61 55.8 L 67.77 55.75" />
        <path fill="hsl(0, 36%, 67%)" d="M 69.15 53.76 L 66 54.11 L 67.55 54.6 Z" />
        <path fill="hsl(6, 44%, 56%)" d="M 66 54.11 L 59.58 55.43 L 56.15 56.75 L 57.95 57 L 59.45 56.91 L 59.63 56 L 60.23 56.9 L 61.86 56.78 L 62.2 55.2 L 62.84 56.27 L 67.54 54.6 Z" />
        <path fill="hsl(5, 37%, 66%)" d="M 69.15 53.76 L 67.69 53.63 L 66.17 52.25 L 59.58 55.43 L 66 54.11 Z" />
        <path fill="hsl(2, 37%, 74%)" d="M 66.17 52.25 L 61.73 43 L 61.88 47.2 L 63.48 50.2 L 58.9 50.2 Z" />
        <path fill="hsl(3, 44%, 60%)" d="M 61.88 47.2 L 60.44 44.51 L 58.9 50.2 L 58 56 L 59.58 55.43 L 66.17 52.25 L 58.9 50.2 L 63.48 50.2" />
        <path fill="hsl(5, 42%, 48%)" d="M 58.9 50.2 L 52.99 46.57 L 58 56 Z" />
        <path fill="hsl(5, 48%, 42%)" d="M 52.99 46.57 L 52.64 48.31 L 54.9 56 L 56.15 56.75 L 58 56 Z" />
        <path fill="hsl(1, 47%, 46%)" d="M 60.44 44.51 L 55.43 37.96 L 52.59 41.64 L 54.92 47.75 L 58.9 50.2 Z" />
        <path fill="hsl(2, 49%, 45%)" d="M 52.59 41.64 L 50.6 41.35 L 52.64 48.31 L 52.99 46.57 L 54.92 47.75 Z" />
        <path fill="hsl(1, 41%, 54%)" d="M 52.59 41.64 L 50.64 37.35 L 48.6 37.9 L 48.55 39.67 L 50.6 41.35 Z" />
        <path fill="hsl(6, 55%, 38%)" d="M 55.43 37.96 L 50.21 33.24 L 50.64 37.35 L 52.59 41.64 Z" />
        <path fill="hsl(0, 44%, 27%)" d="M 50.21 33.24 L 50.18 34 L 48.68 34.18 L 48.64 35.96 L 50.64 37.35 Z" />
        <path fill="hsl(0, 44%, 27%)" d="M 53.17 27.19 L 52.4 35.19 L 50.21 33.24 L 48.73 32.17 L 48.76 30.77 L 51.4 30.7 L 49.07 28.87 L 49.22 27.9 L 50.83 27.97 L 49.93 26.75 L 49.8 25.93 Z" />
        <path fill="hsl(0, 44%, 27%)" d="M 55.06 26.3 L 53.75 27.41 L 51.57 24.9 Z" />
        <path fill="hsl(6, 40%, 52%)" d="M 55.06 26.3 L 56.64 29.27 L 57.07 27.42 L 53.52 24.8 Z" />
        <path fill="hsl(3, 53%, 30%)" d="M 56.64 29.27 L 55.43 37.96 L 53.17 27.19 L 53.75 27.41 L 55.06 26.3 Z" />
        <path fill="hsl(1, 56%, 35%)" d="M 53.17 27.19 L 52.4 35.19 L 55.43 37.96 Z" />
        <path fill="hsl(358, 44%, 47%)" d="M 61.73 43 L 60.53 40.85 L 57.62 40.81 L 60.44 44.51 L 61.88 47.2 Z" />
        <path fill="hsl(9, 34%, 61%)" d="M 60.53 40.85 L 59.99 37 L 58.17 32.38 L 57 27.66 L 56.64 29.27 L 56.57 29.81 L 58.48 33.47 L 59.3 40.84 Z" />
        <path fill="hsl(1, 45%, 48%)" d="M 58.12 40.8 L 58.69 35.35 L 59.3 40.84 Z" />
        <path fill="hsl(26, 39%, 80%)" d="M 56.32 31.57 L 58.73 33.57 L 56.57 29.81 Z" />
        <path fill="hsl(2, 52%, 40%)" d="M 56.32 31.57 L 58.4 33.28 L 58.48 33.47 L 58.69 35.35 L 58.12 40.8 L 57.62 40.81 L 55.43 37.96 Z" />
        <path fill="hsl(26, 39%, 80%)" d="M 58.79 36.3 L 60.7 37.6 L 59 38.36 Z" />
        <path fill="hsl(26, 39%, 80%)" d="M 56.91 28.14 L 58.27 28.86 L 56.64 29.27 " />
        <text transform="rotate(-35)" transform-origin="50 60" x="80" y="60" font-size="15" fill="white">
            A!
        </text>
        <path fill="hsl(223, 4%, 36%)" d="M 41.32 35 L 48.51 41.2 L 46.97 50.23 Z" />
        <path fill="hsl(9, 42%, 74%)" d="M 48.51 41.2 L 53.52 55.22 L 46.97 50.23 Z" />
        <path fill="hsl(3, 40%, 66%)" d="M 46.97 50.23 L 53.52 55.22 L 47.6 64.06 Z" />
        <path fill="hsl(15, 32%, 71%)" d="M 53.52 55.22 L 56.15 56.75 L 47.6 64.06 Z" />
        <path fill="hsl(28, 10%, 63%)" d="M 47.6 64.06 L 56.15 56.75 L 60.4 65.94 L 46.45 72.9 Z" />
        <path fill="hsl(8, 21%, 71%)" d="M 56.15 56.75 L 65.4 58 L 60.4 65.94 Z" />
        <path fill="hsl(27, 13%, 57%)" d="M 65.4 58 L 75.74 59.84 L 60.4 65.94 Z" />
        <path fill="hsl(5, 40%, 47%)" d="M 50.6 41.35 L 54.9 56 L 53.52 55.22 L 48.64 41.55 Z" />
    </g>
</svg>