<svg xmlns="http://www.w3.org/2000/svg" xmlns:xlink="http://www.w3.org/1999/xlink" width="100%" height="100%" viewBox="0 0 100 100">
    <path transform="rotate(37)" d="m57,24
            a100 2000,0,0 0,10 13
            a100 50,0,0 0,0 -13" stroke="black" fill="hsl(207, 24%, 51%)" stroke-linejoin="round" >
    <animate attributeName="d" values="
            m58,24
            a100 2000,0,0 0,10 13
            a100 50,0,0 0,0 -13;
                m57,24
            a100 2000,0,0 0,10 13
            a100 50,0,0 0,0 -13;
                m58,24
            a100 2000,0,0 0,10 13
            a100 50,0,0 0,0 -13" dur="2" repeatCount="indefinite"/>
    </path>
        <path d="m56,38
            a100 900,0,0 1,11 -5
            a100 50,0,0 0,-1 13" stroke="black" fill="hsl(207, 24%, 51%)" stroke-linejoin="round" />
    <path d="m76,53
            a10 5,200,0 0,10 2
            a10 5,200,0 0,-6 -6
            a10 20,0,0 0,5 -12
            a10 20,0,0 0,-10 12
            a100 400,-10,0 1,-20 -12
            a100 400,-10,0 0,-34 -10
            a100 30,28,0 0,1 21
            a90 400,0,0 0,25 18
            a90 400,4,0 0,29 -13 z" stroke="black" fill="hsl(207, 24%, 51%)" />
    <path d="m44,63
            a100 2000,0,0 0,10 13
            a100 50,0,0 0,0 -13" stroke="black" fill="hsl(207, 24%, 51%)" stroke-linejoin="round">
    <animate attributeName="d" values="
            m43,63
            a100 2000,0,0 0,10 13
            a100 50,0,0 0,0 -13;
                m44,62
            a100 2000,0,0 0,10 13
            a100 50,0,0 0,0 -13;
                m43,63
            a100 2000,0,0 0,10 13
            a100 50,0,0 0,0 -13;" dur="2" repeatCount="indefinite"/>
    </path>
    <path d="m48,47
            a10 5,0,0 0,2 -4" stroke="black" fill="hsl(207, 24%, 51%)" stroke-width="0.8" stroke-linecap="round" />
    <path d="m50,50
            a10 5,0,0 0,2 -4" stroke="black" fill="hsl(207, 24%, 51%)" stroke-width="0.8" stroke-linecap="round" />
    <path d="m52,52
            a10 5,0,0 0,2 -4" stroke="black" fill="hsl(207, 24%, 51%)" stroke-width="0.8" stroke-linecap="round" />
    <ellipse cx="43.4" cy="39.5" rx="3.5" ry="4.5" fill="black" />
    <ellipse cx="42.2" cy="38.5" rx="1" ry="1.5" fill="white" />
    <ellipse cx="44.9" cy="40.7" rx="0.5" ry="0.8" fill="white" />
    <ellipse cx="24.9" cy="36.1" rx="0.5" ry="0.8" fill="black" />
    <ellipse cx="21.3" cy="37" rx="0.5" ry="0.8" fill="black" />
    <path d="m25,45
            a10 5,0,0 0,12 0
            a10 35,0,0 1,-12 0 z" stroke="black" fill="red" stroke-linejoin="round" stroke-linecap="round" >
    <animate attributeName="d" values="m25,45
            a10 5,0,0 0,12 0
            a10 5,0,0 1,-12 0 z;
                m25,45
            a10 5,0,0 0,12 0
            a10 35,0,0 1,-12 0 z;
            m25,45
            a10 5,0,0 0,12 0
            a10 35,0,0 1,-12 0 z;
            m25,45
            a10 5,0,0 0,12 0
            a10 5,0,0 1,-12 0 z;" dur="3" repeatCount="indefinite"/>
    </path>
</svg>